<mxfile host="app.diagrams.net" modified="2022-11-22T18:36:39.528Z" agent="5.0 (Windows NT 10.0; Win64; x64) AppleWebKit/537.36 (KHTML, like Gecko) Chrome/107.0.0.0 Safari/537.36" version="20.6.0" etag="T7B83UsgC6N9oU-W1kmI" type="github">
  <diagram id="AQk9JtrCWdrTH7kSEHwD" name="Page-1">
    <mxGraphModel dx="1038" dy="579" grid="1" gridSize="10" guides="1" tooltips="1" connect="1" arrows="1" fold="1" page="1" pageScale="1" pageWidth="850" pageHeight="1100" math="0" shadow="0">
      <root>
        <mxCell id="0" />
        <mxCell id="1" parent="0" />
        <mxCell id="5UuG49PHdLis-zPWlD6W-1" value="" style="rounded=0;whiteSpace=wrap;html=1;" vertex="1" parent="1">
          <mxGeometry x="40" y="120" width="790" height="440" as="geometry" />
        </mxCell>
        <mxCell id="5UuG49PHdLis-zPWlD6W-2" value="" style="rounded=0;whiteSpace=wrap;html=1;" vertex="1" parent="1">
          <mxGeometry x="40" y="120" width="240" height="440" as="geometry" />
        </mxCell>
        <mxCell id="5UuG49PHdLis-zPWlD6W-3" value="" style="rounded=1;whiteSpace=wrap;html=1;" vertex="1" parent="1">
          <mxGeometry x="50" y="130" width="220" height="20" as="geometry" />
        </mxCell>
        <mxCell id="5UuG49PHdLis-zPWlD6W-4" value="" style="rounded=0;whiteSpace=wrap;html=1;" vertex="1" parent="1">
          <mxGeometry x="50" y="160" width="220" height="40" as="geometry" />
        </mxCell>
        <mxCell id="5UuG49PHdLis-zPWlD6W-5" value="" style="rounded=0;whiteSpace=wrap;html=1;" vertex="1" parent="1">
          <mxGeometry x="50" y="200" width="220" height="40" as="geometry" />
        </mxCell>
        <mxCell id="5UuG49PHdLis-zPWlD6W-6" value="" style="rounded=0;whiteSpace=wrap;html=1;" vertex="1" parent="1">
          <mxGeometry x="50" y="280" width="220" height="40" as="geometry" />
        </mxCell>
        <mxCell id="5UuG49PHdLis-zPWlD6W-7" value="" style="rounded=0;whiteSpace=wrap;html=1;" vertex="1" parent="1">
          <mxGeometry x="50" y="240" width="220" height="40" as="geometry" />
        </mxCell>
        <mxCell id="5UuG49PHdLis-zPWlD6W-8" value="" style="rounded=0;whiteSpace=wrap;html=1;" vertex="1" parent="1">
          <mxGeometry x="50" y="440" width="220" height="40" as="geometry" />
        </mxCell>
        <mxCell id="5UuG49PHdLis-zPWlD6W-9" value="" style="rounded=0;whiteSpace=wrap;html=1;" vertex="1" parent="1">
          <mxGeometry x="50" y="400" width="220" height="40" as="geometry" />
        </mxCell>
        <mxCell id="5UuG49PHdLis-zPWlD6W-10" value="" style="rounded=0;whiteSpace=wrap;html=1;" vertex="1" parent="1">
          <mxGeometry x="50" y="320" width="220" height="40" as="geometry" />
        </mxCell>
        <mxCell id="5UuG49PHdLis-zPWlD6W-11" value="" style="rounded=0;whiteSpace=wrap;html=1;" vertex="1" parent="1">
          <mxGeometry x="50" y="360" width="220" height="40" as="geometry" />
        </mxCell>
        <mxCell id="5UuG49PHdLis-zPWlD6W-16" value="" style="rounded=0;whiteSpace=wrap;html=1;" vertex="1" parent="1">
          <mxGeometry x="50" y="520" width="220" height="40" as="geometry" />
        </mxCell>
        <mxCell id="5UuG49PHdLis-zPWlD6W-17" value="" style="rounded=0;whiteSpace=wrap;html=1;" vertex="1" parent="1">
          <mxGeometry x="50" y="480" width="220" height="40" as="geometry" />
        </mxCell>
        <mxCell id="5UuG49PHdLis-zPWlD6W-18" value="" style="rounded=1;whiteSpace=wrap;html=1;" vertex="1" parent="1">
          <mxGeometry x="310" y="510" width="480" height="30" as="geometry" />
        </mxCell>
        <mxCell id="5UuG49PHdLis-zPWlD6W-19" value="" style="shape=callout;whiteSpace=wrap;html=1;perimeter=calloutPerimeter;position2=0;base=20;size=40;position=0;" vertex="1" parent="1">
          <mxGeometry x="323" y="425" width="205" height="70" as="geometry" />
        </mxCell>
        <mxCell id="5UuG49PHdLis-zPWlD6W-22" value="Shubham Jangle" style="rounded=0;whiteSpace=wrap;html=1;align=left;" vertex="1" parent="1">
          <mxGeometry x="330" y="120" width="500" height="50" as="geometry" />
        </mxCell>
        <mxCell id="5UuG49PHdLis-zPWlD6W-26" value="" style="rounded=0;whiteSpace=wrap;html=1;" vertex="1" parent="1">
          <mxGeometry x="280" y="120" width="50" height="50" as="geometry" />
        </mxCell>
        <mxCell id="5UuG49PHdLis-zPWlD6W-23" value="" style="ellipse;whiteSpace=wrap;html=1;aspect=fixed;" vertex="1" parent="1">
          <mxGeometry x="290" y="130" width="30" height="30" as="geometry" />
        </mxCell>
      </root>
    </mxGraphModel>
  </diagram>
</mxfile>
